<svg width="163" height="205" viewBox="0 0 163 205" fill="none" xmlns="http://www.w3.org/2000/svg">
<g clip-path="url(#clip0_19_85)">
<path d="M128.053 31.2963L15.7155 31.5897C21.1681 20.7089 29.2445 19.3039 28.6545 0H114.524C112.171 15.7931 121.296 21.6236 128.053 31.2963Z" fill="#E0E0E0"/>
<path d="M130.406 169.941L16.0105 172.865C21.4631 183.746 29.5395 185.151 28.6545 204.455H114.524C111.876 191.879 123.645 179.614 130.403 169.941H130.406Z" fill="#E0E0E0"/>
<path d="M104.226 185.441H37.2376C16.8713 185.441 0.298485 168.961 0.298485 148.701V56.4824C0.298485 36.2258 16.8678 19.7423 37.2376 19.7423H104.226C124.593 19.7423 141.166 36.2224 141.166 56.4824V148.704C141.166 168.961 124.596 185.444 104.226 185.444V185.441Z" fill="#E0E0E0"/>
<path d="M103.282 179.154H39.0597C20.7689 179.154 5.88638 164.352 5.88638 146.16V58.5882C5.88638 40.3959 20.7689 25.5935 39.0597 25.5935H103.282C121.573 25.5935 136.456 40.3959 136.456 58.5882V146.16C136.456 164.352 121.573 179.154 103.282 179.154Z" fill="white"/>
<path d="M101.262 151.939H38.3066C28.6857 151.939 20.8592 144.154 20.8592 134.585V75.3341C20.8592 65.765 28.6857 57.9807 38.3066 57.9807H101.262C110.883 57.9807 118.71 65.765 118.71 75.3341V134.585C118.71 144.154 110.883 151.939 101.262 151.939Z" fill="#AA28C0"/>
<path d="M143.494 84.6788C141.061 84.6788 139.083 82.7111 139.083 80.2912V60.9874C139.083 58.5675 141.061 56.5998 143.494 56.5998C145.927 56.5998 147.906 58.5675 147.906 60.9874V80.2912C147.906 82.7111 145.927 84.6788 143.494 84.6788Z" fill="#D7D7D8"/>
<path d="M59.8807 86.7914H46.6086C45.9388 86.7914 45.3939 86.2495 45.3939 85.5832C45.3939 84.917 45.9388 84.375 46.6086 84.375H59.8807C60.5506 84.375 61.0955 84.917 61.0955 85.5832C61.0955 86.2495 60.5506 86.7914 59.8807 86.7914Z" fill="white"/>
<path d="M102.918 70.2389H89.6458C88.976 70.2389 88.4311 69.6969 88.4311 69.0307C88.4311 68.3644 88.976 67.8224 89.6458 67.8224H102.918C103.588 67.8224 104.133 68.3644 104.133 69.0307C104.133 69.6969 103.588 70.2389 102.918 70.2389Z" fill="white"/>
<path d="M92.9569 96.5538H46.6086C45.9388 96.5538 45.3939 96.0119 45.3939 95.3456C45.3939 94.6794 45.9388 94.1374 46.6086 94.1374H92.9569C93.6268 94.1374 94.1717 94.6794 94.1717 95.3456C94.1717 96.0119 93.6268 96.5538 92.9569 96.5538Z" fill="white"/>
<path d="M92.9569 106.22H46.6086C45.9388 106.22 45.3939 105.678 45.3939 105.011C45.3939 104.345 45.9388 103.803 46.6086 103.803H92.9569C93.6268 103.803 94.1717 104.345 94.1717 105.011C94.1717 105.678 93.6268 106.22 92.9569 106.22Z" fill="white"/>
<path d="M92.9569 115.885H46.6086C45.9388 115.885 45.3939 115.343 45.3939 114.677C45.3939 114.011 45.9388 113.469 46.6086 113.469H92.9569C93.6268 113.469 94.1717 114.011 94.1717 114.677C94.1717 115.343 93.6268 115.885 92.9569 115.885Z" fill="white"/>
<path d="M92.9569 125.551H46.6086C45.9388 125.551 45.3939 125.009 45.3939 124.343C45.3939 123.677 45.9388 123.135 46.6086 123.135H92.9569C93.6268 123.135 94.1717 123.677 94.1717 124.343C94.1717 125.009 93.6268 125.551 92.9569 125.551Z" fill="white"/>
<path d="M148.277 50.9005L143.238 46.9997C143.238 46.9997 137.49 48.7809 137.341 48.8569C137.192 48.9328 128.421 69.1653 128.421 69.1653C128.421 69.1653 150.894 80.6054 149.252 79.4904C147.607 78.3788 147.947 63.3002 149.478 61.336C151.012 59.3649 149.704 54.4285 149.704 54.4285L148.284 50.9005H148.277Z" fill="#2F2E43"/>
<path d="M134.352 60.0208H141.179V70.7981L133.651 68.3368L134.352 60.0208Z" fill="#F3A3A6"/>
<path d="M156.669 129.538C156.492 128.554 156.562 127.539 156.874 126.573L154.493 116.393L159.571 115.333L161.438 125.775C162.046 126.576 162.438 127.515 162.587 128.503C162.997 130.974 162 133.208 160.369 133.494C158.734 133.777 157.079 132.006 156.673 129.538H156.669Z" fill="#F3A3A6"/>
<path d="M143.536 189.024H136.484V198.976H143.536V189.024Z" fill="#F3A3A6"/>
<path d="M150.398 205C147.302 205 142.783 204.679 142.748 204.676C141.54 204.783 135.505 205.255 135.203 203.882C134.925 202.618 135.335 201.299 135.39 201.116C135.973 195.379 136.189 195.31 136.317 195.276C136.522 195.217 137.122 195.5 138.094 196.125L138.153 196.166L138.167 196.235C138.184 196.322 138.615 198.431 140.659 198.106C142.061 197.885 142.516 197.578 142.658 197.426C142.54 197.371 142.391 197.278 142.287 197.119C142.134 196.884 142.11 196.584 142.21 196.221C142.474 195.269 143.262 193.86 143.293 193.798L143.383 193.636L151.397 199.014L156.347 200.423C156.721 200.526 157.02 200.795 157.173 201.151C157.381 201.648 157.252 202.225 156.85 202.584C155.951 203.388 154.163 204.765 152.289 204.934C151.789 204.983 151.13 204.997 150.391 204.997L150.398 205Z" fill="#2F2E43"/>
<path d="M116.4 181.21L111.105 189.654L117.089 193.366L122.384 184.922L116.4 181.21Z" fill="#F3A3A6"/>
<path d="M124.353 203.64C123.368 203.64 122.281 203.498 121.365 203.039C119.053 201.883 113.434 197.82 113.4 197.792C112.32 197.25 106.947 194.471 107.423 193.149C107.86 191.934 108.908 191.026 109.054 190.905C112.601 186.338 112.817 186.397 112.948 186.435C113.157 186.49 113.511 187.049 114.007 188.088L114.038 188.151L114.01 188.216C113.976 188.299 113.223 190.315 115.128 191.116C116.437 191.665 116.985 191.644 117.186 191.592C117.113 191.482 117.037 191.326 117.033 191.133C117.027 190.854 117.165 190.584 117.443 190.329C118.175 189.659 119.591 188.879 119.654 188.844L119.817 188.758L123.756 197.54L127.21 201.337C127.473 201.62 127.585 202.007 127.522 202.39C127.435 202.918 127.015 203.343 126.484 203.436C125.943 203.529 125.179 203.63 124.353 203.63V203.64Z" fill="#2F2E43"/>
<path d="M131.288 105.802C131.288 105.802 129.001 105.802 125.419 112.93C121.837 120.062 126.394 148.69 126.394 148.69L113.625 181.55L122.583 187.788L138.934 152.588L134.901 191.575H144.98L152.82 124.07L151.029 105.802H131.284H131.288Z" fill="#2F2E43"/>
<path d="M129.754 66.5935H143.418L155.736 106.917H121.469L129.754 66.5935Z" fill="#D4D4D4"/>
<path d="M141.259 66.5969L155.149 123.853H162.094C162.094 123.853 151.567 70.8291 150.672 68.6026C149.776 66.3726 141.266 66.5969 141.266 66.5969H141.259Z" fill="#D4D4D4"/>
<path d="M140.249 62.9999C144.393 62.9999 147.753 59.6585 147.753 55.5366C147.753 51.4147 144.393 48.0732 140.249 48.0732C136.105 48.0732 132.746 51.4147 132.746 55.5366C132.746 59.6585 136.105 62.9999 140.249 62.9999Z" fill="#F3A3A6"/>
<path d="M149.593 54.1765L147.753 54.4872C146.035 47.6521 142.148 49.8856 141.78 49.8062C141.412 49.7268 135.883 55.7437 136.331 61.8366C136.779 67.926 128.865 70.7808 128.865 70.7808C128.865 70.7808 126.099 75.9486 128.567 85.3036C131.031 94.6587 125.804 97.7966 125.804 97.7966C115.499 96.9267 121.695 82.6283 123.34 80.0289C124.985 77.4295 123.86 72.9004 123.86 72.9004C121.32 70.6738 124.308 65.7719 124.308 65.7719C124.308 65.7719 123.784 59.2372 125.353 57.9737C126.922 56.7103 126.998 53.5931 126.998 53.5931C129.764 41.6386 138.795 43.9377 138.795 43.9377C150.366 42.6742 149.596 54.1696 149.596 54.1696L149.593 54.1765Z" fill="#2F2E43"/>
<path d="M115.617 128.34C115.805 127.356 116.235 126.431 116.87 125.641L118.283 115.285L123.409 116.092L121.424 126.514C121.702 127.477 121.733 128.492 121.521 129.469C121.021 131.92 119.296 133.66 117.665 133.349C116.034 133.039 115.114 130.798 115.617 128.344V128.34Z" fill="#F3A3A6"/>
<path d="M122.854 123.055H115.909C115.909 123.055 126.436 70.0317 127.331 67.8052C128.227 65.5786 135.723 66.521 135.723 66.521L122.85 123.055H122.854Z" fill="#D4D4D4"/>
<path d="M0 204.589C0 204.817 0.183949 205 0.413018 205H162.587C162.816 205 163 204.817 163 204.589C163 204.361 162.816 204.178 162.587 204.178H0.413018C0.183949 204.178 0 204.361 0 204.589Z" fill="#2F2E43"/>
<path d="M50.1037 70.3873H37.7721C34.166 70.3873 31.2298 67.4669 31.2298 63.8802V52.4815C31.2298 48.8948 34.166 45.9744 37.7721 45.9744H50.1037C53.7098 45.9744 56.646 48.8948 56.646 52.4815V63.8802C56.646 67.4669 53.7098 70.3873 50.1037 70.3873Z" fill="#D7D7D8"/>
</g>
<defs>
<clipPath id="clip0_19_85">
<rect width="163" height="205" fill="white"/>
</clipPath>
</defs>
</svg>
