<svg width="487" height="232" viewBox="0 0 487 232" fill="none" xmlns="http://www.w3.org/2000/svg">
<g clip-path="url(#clip0_19_27)">
<path d="M74.4256 63.0458L85.2491 66.0942V52.746H75.4287L74.4256 63.0458Z" fill="#EFA4A7"/>
<path d="M83.9073 56.4401C89.8638 56.4401 94.6925 52.3041 94.6925 47.202C94.6925 42.1 89.8638 37.9639 83.9073 37.9639C77.9508 37.9639 73.1221 42.1 73.1221 47.202C73.1221 52.3041 77.9508 56.4401 83.9073 56.4401Z" fill="#EFA4A7"/>
<path d="M80.9491 46.2881C82.7573 46.2388 83.9393 44.6791 84.6421 43.2507C85.345 41.8223 86.067 40.1859 87.741 39.5948C89.1083 39.1132 91.5235 42.3696 92.6096 41.4994C93.7342 40.5964 92.6352 35.9554 91.4404 35.1181C90.2456 34.2807 88.6099 34.122 87.0701 34.0618C83.3132 33.9141 79.5307 34.1713 75.844 34.8335C73.563 35.2385 71.2181 35.8514 69.5761 37.2634C67.4932 39.053 66.9628 41.7566 66.8095 44.2796C66.6562 46.8627 66.8287 49.5663 68.2982 51.8266C69.7678 54.0868 72.8346 55.756 75.7737 55.1759C76.0676 53.8077 75.7737 52.4012 75.6523 51.0111C75.5373 49.621 75.6523 48.1215 76.6491 47.0105C77.6458 45.8995 79.7543 45.4672 80.9108 46.4468" fill="#36344E"/>
<path d="M67.6784 49.4897C66.5986 48.811 65.308 48.2473 63.979 48.3841C62.5414 48.5319 61.3338 49.5444 60.9632 50.7429C60.5927 51.9415 61.008 53.2604 61.8961 54.2401C62.7842 55.2197 64.1004 55.8655 65.4997 56.1884C66.3047 56.3745 67.1928 56.4511 67.9596 56.172C69.0969 55.756 69.7039 54.5137 69.263 53.5231" fill="#36344E"/>
<path d="M88.1371 211.556H77.9972V223.875H88.1371V211.556Z" fill="#EFA4A7"/>
<path d="M98.015 231.335C99.082 231.335 100.028 231.313 100.743 231.258C103.44 231.045 106.008 229.343 107.299 228.346C107.88 227.898 108.065 227.186 107.765 226.573C107.548 226.13 107.113 225.802 106.577 225.67L99.459 223.93L87.9326 217.27L87.8048 217.467C87.7537 217.538 86.6228 219.284 86.2458 220.466C86.0989 220.914 86.1372 221.287 86.3608 221.577C86.5142 221.779 86.725 221.894 86.8975 221.96C86.6867 222.146 86.035 222.523 84.0223 222.803C81.0832 223.202 80.4635 220.592 80.4379 220.482L80.4188 220.395L80.3293 220.345C78.93 219.574 78.0675 219.223 77.7736 219.3C77.5883 219.349 77.2752 219.426 76.4446 226.535C76.3615 226.759 75.7737 228.396 76.1762 229.956C76.6107 231.658 85.2874 231.072 87.0189 230.935C87.0701 230.935 93.568 231.335 98.015 231.335Z" fill="#36344E"/>
<path d="M49.1296 201.873L41.5188 212.326L50.1226 216.922L57.7334 206.469L49.1296 201.873Z" fill="#EFA4A7"/>
<path d="M60.5543 229.644C61.7427 229.644 62.8353 229.523 63.6148 229.403C64.3816 229.288 64.9822 228.768 65.1035 228.106C65.193 227.635 65.0269 227.159 64.6563 226.803L59.6918 222.102L54.0308 211.228L53.8008 211.337C53.7114 211.375 51.6732 212.344 50.6253 213.176C50.2228 213.493 50.0247 213.827 50.0311 214.172C50.0311 214.413 50.1397 214.604 50.2484 214.741C49.9544 214.807 49.1686 214.829 47.2901 214.15C44.5491 213.159 45.6353 210.664 45.6864 210.56L45.7247 210.478L45.68 210.396C44.9708 209.104 44.4596 208.42 44.1593 208.349C43.974 208.305 43.6609 208.234 38.5622 213.882C38.3514 214.03 36.8435 215.157 36.2173 216.662C35.5337 218.304 43.2584 221.735 44.811 222.409C44.8557 222.441 52.9446 227.476 56.2607 228.905C57.5769 229.474 59.1359 229.649 60.5543 229.649L60.5543 229.644Z" fill="#36344E"/>
<path d="M70.5345 108.519H98.9223L101.497 131.138L90.2264 214.714H75.7354L81.5305 166.444L58.0241 210.024L45.1432 202.301L63.4998 161.617C63.4998 161.617 56.9444 126.175 62.0942 117.347C67.244 108.519 70.5345 108.519 70.5345 108.519Z" fill="#36344E"/>
<path d="M56.414 109.899H101.497L87.971 59.9701H68.3301L56.414 109.899Z" fill="#AA28C0"/>
<path d="M112.691 58.9904C113.413 55.953 112.091 53.1783 109.752 52.7952C107.407 52.4121 104.928 54.5629 104.206 57.6003C103.9 58.8098 103.944 60.0631 104.347 61.2617L101.497 74.1611L108.864 75.1571L110.89 62.3343C111.803 61.3547 112.423 60.2109 112.691 58.9904Z" fill="#EFA4A7"/>
<path d="M68.8093 59.9701H86.1308L97.8105 79.9732L102.213 64.9832L111.893 65.8643C111.893 65.8643 109.605 95.1548 99.5932 94.1642C89.5811 93.1736 66.2408 66.7837 68.8093 59.9701Z" fill="#AA28C0"/>
<path d="M49.4624 136.053C48.7404 139.09 50.063 141.865 52.4015 142.248C54.7464 142.631 57.2255 140.481 57.9475 137.443C58.2542 136.234 58.2094 134.98 57.8069 133.782L60.6565 120.882L53.2896 119.886L51.2642 132.709C50.3505 133.689 49.7308 134.833 49.4624 136.053Z" fill="#EFA4A7"/>
<path d="M78.6809 59.9701C78.6809 59.9701 68.8349 59.6144 68.3238 59.9701C65.6402 61.8527 49.8777 129.661 49.8777 129.661H59.8579L78.6745 59.9701H78.6809Z" fill="#AA28C0"/>
<path d="M159.523 231.349C159.523 231.71 159.184 232 158.762 232H0.760331C0.338654 232 0 231.71 0 231.349C0 230.988 0.338654 230.697 0.760331 230.697H158.762C159.184 230.697 159.523 230.988 159.523 231.349Z" fill="#484565"/>
<path d="M245.164 29.2795H112.904V61.5691H245.164V29.2795Z" fill="#D5D5D5"/>
<path d="M124.725 36.1205H144.76" stroke="black" stroke-width="2" stroke-miterlimit="10"/>
<path d="M124.725 45.4243H232.704" stroke="black" stroke-width="2" stroke-miterlimit="10"/>
<path d="M264.776 45.4243H291.262" stroke="black" stroke-width="2" stroke-miterlimit="10"/>
<path d="M124.725 53.0068H171.77" stroke="black" stroke-width="2" stroke-miterlimit="10"/>
<path d="M124.725 100.152H194.688" stroke="black" stroke-width="2" stroke-miterlimit="10"/>
<path d="M124.725 109.456H183.826" stroke="black" stroke-width="2" stroke-miterlimit="10"/>
<path d="M124.725 117.039H171.77" stroke="black" stroke-width="2" stroke-miterlimit="10"/>
<path d="M124.725 68.795H189.118" stroke="black" stroke-width="2" stroke-miterlimit="10"/>
<path d="M124.725 76.689H232.704" stroke="black" stroke-width="2" stroke-miterlimit="10"/>
<path d="M124.725 85.5118H171.77" stroke="black" stroke-width="2" stroke-miterlimit="10"/>
<path d="M249.956 0V159.259" stroke="black" stroke-width="2" stroke-miterlimit="10"/>
<path d="M264.776 63.2109H448.269" stroke="black" stroke-width="2" stroke-miterlimit="10"/>
<path d="M264.776 73.0773H371.992" stroke="black" stroke-width="2" stroke-miterlimit="10"/>
<path d="M264.776 81.2712H387.73" stroke="black" stroke-width="2" stroke-miterlimit="10"/>
<path d="M264.776 90.3622H487" stroke="black" stroke-width="2" stroke-miterlimit="10"/>
</g>
<defs>
<clipPath id="clip0_19_27">
<rect width="487" height="232" fill="white"/>
</clipPath>
</defs>
</svg>
