<svg width="327" height="189" viewBox="0 0 327 189" fill="none" xmlns="http://www.w3.org/2000/svg">
<g clip-path="url(#clip0_19_59)">
<path d="M8.65828 188.583C8.65828 188.814 8.88888 189 9.17604 189H326.482C326.769 189 327 188.814 327 188.583C327 188.352 326.769 188.166 326.482 188.166H9.17604C8.88888 188.166 8.65828 188.352 8.65828 188.583Z" fill="#3F3D58"/>
<path d="M110.265 33.3383H8.49729C4.6163 33.3383 1.45755 30.7946 1.45755 27.6692C1.45755 24.5439 4.6163 22.0001 8.49729 22.0001H110.265C114.146 22.0001 117.304 24.5439 117.304 27.6692C117.304 30.7946 114.146 33.3383 110.265 33.3383ZM8.49729 22.7009C5.0949 22.7009 2.32773 24.9293 2.32773 27.6692C2.32773 30.4092 5.0949 32.6375 8.49729 32.6375H110.265C113.667 32.6375 116.434 30.4092 116.434 27.6692C116.434 24.9293 113.667 22.7009 110.265 22.7009H8.49729Z" fill="#E2E3E4"/>
<path d="M110.265 99.6821H8.49729C4.73377 99.6821 1.67509 97.2189 1.67509 94.1882C1.67509 91.1574 4.73377 88.6943 8.49729 88.6943H110.265C114.028 88.6943 117.087 91.1574 117.087 94.1882C117.087 97.2189 114.028 99.6821 110.265 99.6821Z" fill="#AA28C0"/>
<path d="M76.9151 10.9878H6.8222C3.05868 10.9878 0 8.52466 0 5.4939C0 2.46315 3.05868 0 6.8222 0H76.9151C80.6786 0 83.7373 2.46315 83.7373 5.4939C83.7373 8.52466 80.6786 10.9878 76.9151 10.9878Z" fill="#E2E3E4"/>
<path d="M110.265 55.5101H8.49729C4.6163 55.5101 1.45755 52.9664 1.45755 49.841C1.45755 46.7157 4.6163 44.1719 8.49729 44.1719H110.265C114.146 44.1719 117.304 46.7157 117.304 49.841C117.304 52.9664 114.146 55.5101 110.265 55.5101ZM8.49729 44.8727C5.0949 44.8727 2.32773 47.1011 2.32773 49.841C2.32773 52.581 5.0949 54.8094 8.49729 54.8094H110.265C113.667 54.8094 116.434 52.581 116.434 49.841C116.434 47.1011 113.667 44.8727 110.265 44.8727H8.49729Z" fill="#E2E3E4"/>
<path d="M110.265 77.6855H8.49729C4.6163 77.6855 1.45755 75.1417 1.45755 72.0164C1.45755 68.891 4.6163 66.3473 8.49729 66.3473H110.265C114.146 66.3473 117.304 68.891 117.304 72.0164C117.304 75.1417 114.146 77.6855 110.265 77.6855ZM8.49729 67.048C5.0949 67.048 2.32773 69.2764 2.32773 72.0164C2.32773 74.7563 5.0949 76.9847 8.49729 76.9847H110.265C113.667 76.9847 116.434 74.7563 116.434 72.0164C116.434 69.2764 113.667 67.048 110.265 67.048H8.49729Z" fill="#E2E3E4"/>
<path d="M4.99918 17.9288H31.6701C32.3054 17.9288 32.8231 18.3422 32.8231 18.8573C32.8231 19.3688 32.3054 19.7858 31.6701 19.7858H4.99918C4.36395 19.7858 3.84619 19.3723 3.84619 18.8573C3.84619 18.3457 4.36395 17.9288 4.99918 17.9288Z" fill="#E2E3E4"/>
<path d="M4.99918 40.6261H31.6701C32.3054 40.6261 32.8231 41.0396 32.8231 41.5511C32.8231 42.0627 32.3054 42.4796 31.6701 42.4796H4.99918C4.36395 42.4796 3.84619 42.0662 3.84619 41.5546C3.84619 41.0431 4.36395 40.6261 4.99918 40.6261Z" fill="#E2E3E4"/>
<path d="M4.99918 63.327H31.6701C32.3054 63.327 32.8231 63.7405 32.8231 64.2555C32.8231 64.7671 32.3054 65.1805 31.6701 65.1805H4.99918C4.36395 65.1805 3.84619 64.7671 3.84619 64.252C3.84619 63.7405 4.36395 63.327 4.99918 63.327Z" fill="#E2E3E4"/>
<path d="M194.52 46.3408L184.791 48.9195V37.6409H193.619L194.52 46.3408Z" fill="#9F616A"/>
<path d="M185.996 40.7628C191.35 40.7628 195.69 37.2677 195.69 32.9564C195.69 28.645 191.35 25.15 185.996 25.15C180.643 25.15 176.302 28.645 176.302 32.9564C176.302 37.2677 180.643 40.7628 185.996 40.7628Z" fill="#9F616A"/>
<path d="M188.659 32.1821C187.036 32.1435 185.97 30.8226 185.339 29.6173C184.708 28.412 184.06 27.028 182.555 26.5305C181.323 26.124 179.152 28.8745 178.182 28.1422C177.168 27.3784 178.156 23.4577 179.231 22.7534C180.305 22.0492 181.776 21.9125 183.16 21.86C186.536 21.7338 189.934 21.9546 193.245 22.5117C195.294 22.855 197.4 23.3736 198.879 24.5649C200.75 26.0785 201.229 28.3594 201.364 30.4932C201.503 32.6761 201.346 34.9605 200.028 36.8701C198.71 38.7796 195.951 40.1881 193.306 39.7011C193.04 38.5449 193.31 37.3571 193.415 36.1798C193.515 35.0061 193.41 33.7377 192.518 32.8022C191.631 31.8667 189.725 31.4953 188.689 32.3257" fill="#2F2E43"/>
<path d="M200.585 34.8869C201.555 34.3158 202.717 33.8358 203.909 33.9549C205.197 34.0811 206.289 34.936 206.62 35.9486C206.95 36.9612 206.58 38.0754 205.78 38.9023C204.984 39.7291 203.796 40.2757 202.543 40.549C201.816 40.7067 201.02 40.7733 200.328 40.535C199.31 40.1811 198.757 39.1335 199.158 38.2996" fill="#2F2E43"/>
<path d="M163.489 108.336C162.841 110.901 164.029 113.245 166.134 113.571C168.24 113.897 170.472 112.078 171.116 109.514C171.39 108.491 171.347 107.432 170.99 106.423L179.009 66.2176L168.98 64.697L165.108 105.516C164.285 106.343 163.733 107.31 163.489 108.34V108.336Z" fill="#9F616A"/>
<path d="M184.687 43.7445H177.843C173.005 44.3366 171.691 46.4143 170.59 50.2545C168.91 56.1128 166.765 63.9121 167.192 64.0278C167.875 64.21 179.527 68.6247 185.465 67.6156L184.687 43.7445Z" fill="#E2E3E4"/>
<path d="M191.304 171.811H182.194V182.22H191.304V171.811Z" fill="#9F616A"/>
<path d="M173.322 188.52C172.365 188.52 171.512 188.502 170.868 188.453C168.449 188.275 166.139 186.835 164.977 185.994C164.455 185.615 164.29 185.013 164.559 184.494C164.755 184.123 165.142 183.842 165.625 183.734L172.021 182.262L182.376 176.635L182.494 176.803C182.537 176.866 183.555 178.342 183.895 179.337C184.025 179.715 183.991 180.03 183.795 180.276C183.66 180.444 183.468 180.542 183.316 180.598C183.503 180.756 184.091 181.078 185.901 181.309C188.542 181.646 189.098 179.442 189.12 179.351L189.138 179.277L189.216 179.235C190.473 178.583 191.248 178.285 191.513 178.349C191.679 178.387 191.957 178.457 192.71 184.459C192.784 184.648 193.31 186.029 192.953 187.35C192.566 188.786 184.769 188.292 183.207 188.18C183.164 188.184 177.325 188.52 173.326 188.52H173.322Z" fill="#2F2E43"/>
<path d="M217.247 163.632L209.517 167.514L216.357 176.347L224.088 172.465L217.247 163.632Z" fill="#9F616A"/>
<path d="M206.981 187.094C205.91 187.094 204.927 186.989 204.227 186.891C203.539 186.793 203 186.351 202.886 185.798C202.808 185.398 202.952 184.995 203.291 184.697L207.751 180.724L212.841 171.537L213.05 171.628C213.128 171.663 214.96 172.48 215.904 173.18C216.265 173.447 216.444 173.731 216.435 174.021C216.431 174.225 216.335 174.386 216.239 174.501C216.5 174.557 217.21 174.578 218.898 174.004C221.36 173.166 220.386 171.057 220.342 170.97L220.307 170.9L220.347 170.833C220.986 169.743 221.443 169.162 221.713 169.102C221.882 169.064 222.161 169.004 226.742 173.78C226.929 173.906 228.283 174.855 228.848 176.127C229.462 177.511 222.522 180.416 221.125 180.983C221.082 181.011 213.82 185.261 210.836 186.47C209.652 186.95 208.251 187.097 206.976 187.097L206.981 187.094Z" fill="#2F2E43"/>
<path d="M198.013 84.7595H172.504L170.189 103.869L180.318 174.477H193.341L188.133 133.697L209.256 170.514L220.83 163.99L204.335 129.618C204.335 129.618 210.226 99.675 205.597 92.2155C200.968 84.7595 198.013 84.7595 198.013 84.7595Z" fill="#2F2E43"/>
<path d="M210.705 85.9228H170.189L182.346 43.7445H199.997L210.705 85.9228Z" fill="#E2E3E4"/>
<path d="M214.351 108.336C214.999 110.901 213.812 113.245 211.706 113.571C209.6 113.897 207.368 112.078 206.724 109.514C206.45 108.491 206.493 107.432 206.85 106.423L198.831 66.2176L208.86 64.697L212.733 105.516C213.555 106.343 214.107 107.31 214.351 108.34V108.336Z" fill="#9F616A"/>
<path d="M193.154 43.7445H199.997C204.836 44.3366 206.15 46.4143 207.25 50.2545C208.93 56.1128 211.075 63.9121 210.648 64.0278C209.965 64.21 198.314 68.6247 192.375 67.6156L193.154 43.7445Z" fill="#E2E3E4"/>
</g>
<defs>
<clipPath id="clip0_19_59">
<rect width="327" height="189" fill="white"/>
</clipPath>
</defs>
</svg>
