<svg width="427" height="213" viewBox="0 0 427 213" fill="none" xmlns="http://www.w3.org/2000/svg">
<g clip-path="url(#clip0_19_3)">
<path d="M382.539 212.127H100.021C95.7544 212.127 92.2874 208.919 92.2874 204.972V57.8914C92.2874 53.9442 95.7544 50.7365 100.021 50.7365H382.539C386.806 50.7365 390.273 53.9442 390.273 57.8914V204.972C390.273 208.919 386.806 212.127 382.539 212.127ZM100.021 55.3938C98.5293 55.3938 97.3212 56.5116 97.3212 57.8914V204.972C97.3212 206.352 98.5293 207.469 100.021 207.469H382.539C384.031 207.469 385.239 206.352 385.239 204.972V57.8914C385.239 56.5116 384.031 55.3938 382.539 55.3938H100.021Z" fill="#D5D5D6"/>
<path d="M77.6959 105.67L67.0684 75.2926V75.246L71.0828 43.9658C71.6994 39.1745 76.0914 35.565 81.3013 35.565C84.4914 35.565 87.4487 36.8982 89.4119 39.2269C91.3751 41.5556 92.0609 44.5305 91.287 47.4006L84.1957 73.6392L85.8883 103.417L77.6896 105.67H77.6959Z" fill="#AA28C0"/>
<path d="M170.795 122.751H157.166V154.818H170.795V122.751Z" fill="#AA28C0"/>
<path d="M192.881 119.672H179.252V154.818H192.881V119.672Z" fill="#AA28C0"/>
<path d="M214.966 131.699H201.337V154.818H214.966V131.699Z" fill="#AA28C0"/>
<path d="M237.052 124.562H223.423V154.818H237.052V124.562Z" fill="#AA28C0"/>
<path d="M259.137 130.675H245.508V154.812H259.137V130.675Z" fill="#AA28C0"/>
<path d="M281.223 112.662H267.594V154.818H281.223V112.662Z" fill="#AA28C0"/>
<path d="M303.308 119.672H289.679V154.818H303.308V119.672Z" fill="#AA28C0"/>
<path d="M325.394 113.565H311.765V154.818H325.394V113.565Z" fill="#AA28C0"/>
<path d="M111.271 71.13H211.858C212.764 71.13 213.5 71.8111 213.5 72.6495C213.5 73.4878 212.764 74.169 211.858 74.169H111.271C110.365 74.169 109.629 73.4878 109.629 72.6495C109.629 71.8111 110.365 71.13 111.271 71.13Z" fill="#D5D5D6"/>
<path d="M427 212.127C427 212.61 426.578 213 426.056 213H0.943827C0.421576 213 0 212.61 0 212.127C0 211.644 0.421576 211.253 0.943827 211.253H426.056C426.578 211.253 427 211.644 427 212.127Z" fill="#2E2E41"/>
<path d="M84.1265 35.3263L96.4906 39.0872V22.6175H85.2716L84.1265 35.3263Z" fill="#F3A3A6"/>
<path d="M94.9616 27.1759C101.766 27.1759 107.282 22.0724 107.282 15.7769C107.282 9.48145 101.766 4.37796 94.9616 4.37796C88.1574 4.37796 82.6415 9.48145 82.6415 15.7769C82.6415 22.0724 88.1574 27.1759 94.9616 27.1759Z" fill="#F3A3A6"/>
<path d="M91.8218 16.6676L93.5207 18.5772L96.5913 13.6054C96.5913 13.6054 100.511 13.7917 100.511 11.1021C100.511 8.41241 104.11 8.33672 104.11 8.33672C104.11 8.33672 109.201 0.110605 98.6551 2.27629C98.6551 2.27629 91.3373 -2.36363 87.7004 1.60097C87.7004 1.60097 76.5444 6.79978 79.7345 15.8526L85.0388 25.179L86.2406 23.0657C86.2406 23.0657 85.5107 14.1992 91.8218 16.6676Z" fill="#2F2E43"/>
<path d="M90.6829 191.343H80.7287V204.407H90.6829V191.343Z" fill="#F3A3A6"/>
<path d="M89.5818 211.888C87.8766 212.034 79.3633 212.651 78.9354 210.846C78.5453 209.187 79.1179 207.452 79.1997 207.219C80.0177 199.686 80.3197 199.598 80.5022 199.546C80.7916 199.47 81.641 199.837 83.0127 200.658L83.1008 200.71L83.1197 200.803C83.1449 200.92 83.7552 203.685 86.637 203.266C88.6128 202.975 89.2546 202.573 89.4622 202.375C89.2923 202.305 89.0847 202.183 88.94 201.968C88.7261 201.659 88.6883 201.263 88.8267 200.792C89.198 199.54 90.3117 197.689 90.3557 197.613L90.4816 197.404L101.795 204.465L108.779 206.311C109.308 206.451 109.729 206.8 109.943 207.266C110.239 207.918 110.057 208.674 109.49 209.146C108.219 210.2 105.702 212.01 103.053 212.232C102.349 212.29 101.417 212.313 100.373 212.313C95.9998 212.313 89.6258 211.894 89.5755 211.888H89.5818Z" fill="#2F2E43"/>
<path d="M59.6275 171.731L50.6273 181.797L58.2972 187.667L67.2974 177.601L59.6275 171.731Z" fill="#F3A3A6"/>
<path d="M52.3069 192.787C50.8975 191.89 43.9068 187.349 44.8192 185.708C45.6624 184.2 47.2983 183.204 47.5248 183.07C53.3451 177.749 53.6408 177.86 53.817 177.93C54.0939 178.04 54.4903 178.826 54.9874 180.264L55.0188 180.352L54.9685 180.433C54.9056 180.538 53.471 183.03 55.9815 184.404C57.7056 185.347 58.4795 185.411 58.769 185.382C58.6872 185.23 58.6117 185.009 58.6431 184.759C58.6872 184.398 58.9326 184.066 59.373 183.787C60.5245 183.041 62.6513 182.273 62.7456 182.238L62.9847 182.151L66.8356 194.266L70.9443 199.808C71.2527 200.227 71.3408 200.745 71.1834 201.234C70.9632 201.91 70.3025 202.387 69.5349 202.416C67.8297 202.48 64.6459 202.387 62.4499 200.996C61.871 200.629 61.1348 200.099 60.3294 199.482C56.9631 196.903 52.3384 192.822 52.3006 192.787H52.3069Z" fill="#2F2E43"/>
<path d="M107.143 90.5746H73.0019L80.5903 194.993H91.9728L107.15 90.5746H107.143Z" fill="#2F2E43"/>
<path d="M100.19 96.3265L107.143 90.5746L103.664 148.006L64.7843 182.226L55.088 174.815L77.7462 147.616L100.19 96.3265Z" fill="#2F2E43"/>
<path d="M100.19 29.1553L83.3274 26.6228L78.0923 35.0934C71.4351 45.8637 68.7232 58.3338 70.3529 70.6468L73.0019 90.5863H107.143L100.19 29.1611V29.1553Z" fill="#AA28C0"/>
<path d="M86.4986 109.379C87.1971 112.598 85.8946 115.538 83.5979 115.946C81.295 116.347 78.8662 114.065 78.1678 110.84C77.872 109.554 77.9224 108.226 78.3188 106.963L75.5502 93.2759L82.7862 92.2338L84.7431 105.839C85.6366 106.881 86.2406 108.092 86.4986 109.385V109.379Z" fill="#F3A3A6"/>
</g>
<defs>
<clipPath id="clip0_19_3">
<rect width="427" height="213" fill="white"/>
</clipPath>
</defs>
</svg>
