<svg width="82" height="15" viewBox="0 0 82 15" fill="none" xmlns="http://www.w3.org/2000/svg">
<path d="M3.66 3.7V6.54H8.24V9.18H3.66V12.26H8.84V15H0.24V0.96H8.84V3.7H3.66ZM14.4803 12.36H18.9603V15H11.0603V0.96H14.4803V12.36ZM24.0116 3.7V6.54H28.5916V9.18H24.0116V12.26H29.1916V15H20.5916V0.96H29.1916V3.7H24.0116ZM44.5919 0.96L39.6119 15H35.3319L30.3519 0.96H33.9919L37.4719 11.56L40.9719 0.96H44.5919ZM54.7613 12.52H49.5213L48.6813 15H45.1013L50.1813 0.96H54.1413L59.2213 15H55.6013L54.7613 12.52ZM53.8813 9.88L52.1413 4.74L50.4213 9.88H53.8813ZM70.8673 0.96V3.7H67.1473V15H63.7273V3.7H60.0073V0.96H70.8673ZM76.0038 3.7V6.54H80.5838V9.18H76.0038V12.26H81.1838V15H72.5838V0.96H81.1838V3.7H76.0038Z" fill="white"/>
</svg>
